PathFileType	4	(X/Y/Z)	3_coords_data.trc
DataRate	CameraRate	NumFrames	NumMarkers	Units	OrigDataRate	OrigDataStartFrame	OrigNumFrames
30.0	30.0	7	21	m	30.0	54	64
Frame#	Time	THUMB_TIP	THUMB_IP	THUMB_MCP	THUMB_CMC	INDEX_TIP	INDEX_DIP	INDEX_PIP	INDEX_MCP	MIDDLE_TIP	MIDDLE_DIP	MIDDLE_PIP	MIDDLE_MCP	RING_TIP	RING_DIP	RING_PIP	RING_MCP	PINKY_TIP	PINKY_DIP	PINKY_PIP	PINKY_MCP	WRIST
X1	Y1	Z1	X2	Y2	Z2	X3	Y3	Z3	X4	Y4	Z4	X5	Y5	Z5	X6	Y6	Z6	X7	Y7	Z7	X8	Y8	Z8	X9	Y9	Z9	X10	Y10	Z10	X11	Y11	Z11	X12	Y12	Z12	X13	Y13	Z13	X14	Y14	Z14	X15	Y15	Z15	X16	Y16	Z16	X17	Y17	Z17	X18	Y18	Z18	X19	Y19	Z19	X20	Y20	Z20	X21	Y21	Z21
52	1.7666666666666588	0.5035330629791325	-0.0003384682394324545	-0.16547366667515095	0.4941448814695246	-0.006292591171570661	-0.14536370725073544	0.479546097723378	-0.018965156751265977	-0.12096900301474256	0.47472268245186966	-0.027366040197957964	-0.07742534879930407	0.5668548220552553	0.0328018181139087	-0.16054999361301525	0.5497686860723756	0.032695625144374685	-0.15454560519888272	0.5269383308973545	0.029997979053313806	-0.14437174550111953	0.4957084981498995	0.013274248985509551	-0.12073595710332752	0.5769494716400849	0.049153960972260824	-0.147771017370102	0.560457122455232	0.04824318779069697	-0.1403431704023308	0.5344486676751442	0.04443807555063661	-0.12775385148538076	0.5012196657716704	0.025826131214499615	-0.104396264248522	0.5760554850308064	0.050582967917216115	-0.12084081513704914	0.5593673499131646	0.05399788202818934	-0.11493789146229205	0.5360756494561962	0.05391367296796595	-0.10612485693058626	0.5066958999330148	0.033506758898941336	-0.08728052064260383	0.5746881739537397	0.04624445798340837	-0.09635103911779641	0.5592570294594971	0.04937100052007848	-0.08963504988580706	0.5399611571906493	0.04774287972671798	-0.08152144679799589	0.5134090070784515	0.028167756970752467	-0.06693784832202976	0.4622830810018608	-0.023011742144276925	-0.051989820119430985
53	1.7999999999999918	0.5031170665001579	0.0001120260438867704	-0.1654453476398089	0.493463155161192	-0.005854395540984769	-0.14546526232139834	0.4789190201148513	-0.01862170935875418	-0.1210873248854214	0.47453369418676095	-0.02723519598057411	-0.07753888329768888	0.5650189154044177	0.03527144864013271	-0.16205772772496074	0.5481606205750035	0.03428510531171752	-0.15551364472708884	0.5256577473930885	0.03083519833413917	-0.1448492800763137	0.4948676678556714	0.01380902050574856	-0.1208551898740251	0.5755168548533138	0.05098475293336996	-0.14891072398122396	0.5592316103069541	0.04950742952644305	-0.14112558906803174	0.5335258886315042	0.04505074878310128	-0.1281346914894872	0.5006467989522483	0.026153629965293856	-0.10451240787318272	0.574996892841608	0.05228419663504891	-0.1218552528058382	0.5583431628903184	0.05500639530192292	-0.11551152258399044	0.5351578570757851	0.05458209032841793	-0.10643179028749439	0.5060914452059935	0.03390269229698312	-0.08739952736179013	0.5739419344217714	0.047979398155275965	-0.09715707798107209	0.5585097411367691	0.05045707587034376	-0.0901779287811636	0.539374571624163	0.04824975041466756	-0.08182418584421891	0.5130049788226403	0.028512706503209917	-0.06712802566139986	0.4622830810018608	-0.023011742144276925	-0.051989820119430985
54	1.8333333333333253	0.5027639006654208	0.0003055441835339012	-0.16543584077200424	0.4928890373062298	-0.005656406294972882	-0.14556268752122026	0.47837940374851606	-0.018445923768930617	-0.12117583088072248	0.4744090893535641	-0.027168157333648968	-0.07760922388353098	0.5633545511562353	0.0373572332785258	-0.16350671316731424	0.5467430245328206	0.03565312125948039	-0.15649577988663577	0.5246225513143058	0.031396882817395444	-0.14533428662125758	0.4942667963339362	0.014114512830881443	-0.12097276119239708	0.5743419726954616	0.0523323438171599	-0.14994322520819214	0.5582391900691259	0.050425403195316854	-0.14187700123698077	0.5328154192138603	0.045439101031857	-0.12852865990805074	0.5002571245203682	0.026299977386965434	-0.10465819041628566	0.5741378644108	0.053633669880134516	-0.12275163605849759	0.5575325061970221	0.055786296999230156	-0.1160711963216049	0.5344276947459945	0.05514009339475501	-0.1068013480103307	0.5058237766930629	0.03399443939569413	-0.08758161796609798	0.5732072953521625	0.049480241076768794	-0.09774999139461926	0.5577839603594303	0.051502246703054644	-0.09060630670468284	0.5387722843753511	0.04884130352818694	-0.08210409659809836	0.5127414605802367	0.028707779678328882	-0.06734195309063618	0.4622830810018609	-0.023011742144276925	-0.051989820119430985
56	1.8666666666666671	0.5026672496562955	0.00022957019488678565	-0.16539735631192376	0.492540533076233	-0.005683909558062306	-0.14563678019384074	0.47802609982034616	-0.0184369392478132	-0.12123367668234575	0.47435336546242735	-0.027148118329413107	-0.07763876434908779	0.5618229566844396	0.03932669051588977	-0.1649969368159414	0.545519728586784	0.0368386801379465	-0.15751264941131438	0.5238582618938812	0.03172637867655209	-0.14582269357392608	0.493978174838021	0.014147466680541343	-0.12108813587481349	0.5733958292267572	0.053498508674459544	-0.15091673261407312	0.557475351176687	0.051161640033351385	-0.14260544970399014	0.5323278695984908	0.04565896859264135	-0.1289403727817816	0.5001278364758344	0.026206679859922977	-0.10483820999586568	0.5734749468526704	0.054769018324496155	-0.12358690817829532	0.5569286918631654	0.056357450395949416	-0.11660848934759571	0.5338833038277954	0.05549876242065177	-0.10720887636299326	0.5057218260605045	0.03393379968966875	-0.08780257876727182	0.5726500102136741	0.050890942947022955	-0.09829495590114024	0.5572332357257496	0.052350308324479344	-0.09100158102502431	0.5383248619466203	0.04928479286970827	-0.08240576605346417	0.5126684677096066	0.0286974497805641	-0.06761407276686571	0.4622830810018608	-0.023011742144276925	-0.051989820119430985
57	1.9000000000000004	0.5026339203012615	6.0205056363393794e-05	-0.16535447606810028	0.4922684925389612	-0.0057971669728721364	-0.1457012549525768	0.4777334588680472	-0.01848585953874693	-0.12127688439458473	0.4743232726291058	-0.02715366782794082	-0.0776520092741042	0.5605114509903245	0.04084917821787676	-0.1662821279544069	0.544510135097871	0.037695349912749254	-0.1584074053096597	0.5232797084561994	0.031868283424732025	-0.14626969079016194	0.49380103998529357	0.014080235095223825	-0.12120518329830188	0.5727257062681179	0.05419779570347549	-0.1517320680411034	0.5569586879862656	0.05153981136068336	-0.14322699580547793	0.5320268517949758	0.04568093144049368	-0.12931704899711483	0.5000873308963577	0.026038592376673386	-0.10502315178261523	0.5730240499400144	0.055478347447375564	-0.12428466765056423	0.5565427067052513	0.0566351186724911	-0.11707167898353621	0.5335361189950687	0.05566772482471383	-0.10758795344570249	0.5057244583219682	0.03378824071227904	-0.08802982113256919	0.5722389971481352	0.05192732306107961	-0.098744749432077	0.5568420872142664	0.052939715687477795	-0.09133460600172771	0.5380110646535664	0.04958402043537191	-0.0826775904828897	0.5126619984045444	0.028621946808972232	-0.06788232905957925	0.4622830810018609	-0.023011742144276925	-0.051989820119430985
58	1.9333333333333338	0.5026700390974908	-0.00018408768896355232	-0.1653037232593425	0.4920859384467968	-0.005984958797614959	-0.14575054684739364	0.47750970072262555	-0.018585362376331793	-0.12130503348682142	0.47431758186672945	-0.027183405473805378	-0.0776498616041702	0.559499493955463	0.04190017790280359	-0.1673299757146467	0.5437689627173866	0.03820651544099368	-0.1591502908438145	0.5229043441382087	0.031832794713374135	-0.14665816497862472	0.4937360698222856	0.01392299951018211	-0.12131872727352222	0.572351183520974	0.05445992775259373	-0.1523794914444926	0.556703342896049	0.05158137682491537	-0.14372738023775788	0.5319189840714706	0.045518158043011014	-0.1296425484795395	0.5001323677779684	0.025808233379318646	-0.10520328058213246	0.5728130793812263	0.05579065371224684	-0.12483789287480795	0.556388875513721	0.056649616307247685	-0.11745495913685411	0.5334052029689457	0.05564419673999632	-0.10791976606862852	0.5058272574902266	0.03356678999596607	-0.08825340217919919	0.5719969083393296	0.0526003526686285	-0.09909342141326449	0.5566221349846054	0.05328258106832123	-0.09160003041175402	0.5378408062380405	0.049736189318445256	-0.08291114008733025	0.512723701277394	0.028482893492465522	-0.06813575833492669	0.4622830810018608	-0.023011742144276925	-0.051989820119430985
59	1.9666666666666672	0.5027816533978897	-0.0004847145605807457	-0.16524180160964352	0.492005661978004	-0.00623602141108226	-0.14577900431763224	0.4773628680396207	-0.018728078070348597	-0.1213176653089082	0.4743349423454687	-0.02723587320303089	-0.07763312470275097	0.5588651971084599	0.04245552023336918	-0.16810756585111197	0.5433510613588619	0.03835550073825367	-0.15971105276038677	0.5227490786162935	0.031629705923471474	-0.14697010208218542	0.49378364487761117	0.013685565758801144	-0.12142313404132632	0.5722858101804862	0.054311091137901224	-0.15284436220601905	0.5567191848319403	0.05130598201974346	-0.1440893925061304	0.5320092706938494	0.0451833315291339	-0.12989985959422579	0.5002596404503665	0.025527859495979188	-0.10536883190364599	0.5728650553446462	0.055732421062141546	-0.12523619818671483	0.5564795244440949	0.05642966520652393	-0.11775099760755858	0.5335087523945101	0.0554244046083624	-0.10818475165756303	0.5060254151142575	0.03327830676650506	-0.08846325687854695	0.5719418945719793	0.052918001520703195	-0.09933251066888371	0.5565825933297255	0.05338922568588367	-0.09179130299797	0.5378235149738244	0.04973769878932294	-0.08309789460075001	0.512855034482506	0.028281766542942788	-0.06836353325071509	0.4622830810018609	-0.023011742144276925	-0.051989820119430985
